<svg width="16" height="16" viewBox="0 0 16 16" fill="none" xmlns="http://www.w3.org/2000/svg">
<path d="M4.16008 10.0173C5.16201 10.0173 5.97422 9.20508 5.97422 8.20316C5.97422 7.20124 5.16201 6.38902 4.16008 6.38902C3.15816 6.38902 2.34595 7.20124 2.34595 8.20316C2.34595 9.20508 3.15816 10.0173 4.16008 10.0173Z" stroke="#4A60A1" stroke-width="0.936687" stroke-linecap="round" stroke-linejoin="round"/>
<path d="M10.5096 14.0991C11.5115 14.0991 12.3237 13.2869 12.3237 12.285C12.3237 11.283 11.5115 10.4708 10.5096 10.4708C9.50765 10.4708 8.69543 11.283 8.69543 12.285C8.69543 13.2869 9.50765 14.0991 10.5096 14.0991Z" stroke="#4A60A1" stroke-width="0.936687" stroke-linecap="round" stroke-linejoin="round"/>
<path d="M10.5096 5.93548C11.5115 5.93548 12.3237 5.12326 12.3237 4.12134C12.3237 3.11942 11.5115 2.30721 10.5096 2.30721C9.50765 2.30721 8.69543 3.11942 8.69543 4.12134C8.69543 5.12326 9.50765 5.93548 10.5096 5.93548Z" stroke="#4A60A1" stroke-width="0.936687" stroke-linecap="round" stroke-linejoin="round"/>
<path d="M8.98464 5.10213L5.68518 7.2224" stroke="#4A60A1" stroke-width="0.936687" stroke-linecap="round" stroke-linejoin="round"/>
<path d="M5.68518 9.18393L8.98464 11.3042" stroke="#4A60A1" stroke-width="0.936687" stroke-linecap="round" stroke-linejoin="round"/>
</svg>
