<svg width="16" height="16" viewBox="0 0 16 16" fill="none" xmlns="http://www.w3.org/2000/svg">
<path d="M4.16008 10.0173C5.16201 10.0173 5.97422 9.20508 5.97422 8.20316C5.97422 7.20124 5.16201 6.38902 4.16008 6.38902C3.15816 6.38902 2.34595 7.20124 2.34595 8.20316C2.34595 9.20508 3.15816 10.0173 4.16008 10.0173Z" stroke="#4A60A1" stroke-width="0.936687" stroke-linecap="round" stroke-linejoin="round"/>
<path d="M10.5097 14.0991C11.5116 14.0991 12.3238 13.2869 12.3238 12.285C12.3238 11.283 11.5116 10.4708 10.5097 10.4708C9.50777 10.4708 8.69556 11.283 8.69556 12.285C8.69556 13.2869 9.50777 14.0991 10.5097 14.0991Z" stroke="#4A60A1" stroke-width="0.936687" stroke-linecap="round" stroke-linejoin="round"/>
<path d="M10.5097 5.93548C11.5116 5.93548 12.3238 5.12326 12.3238 4.12134C12.3238 3.11942 11.5116 2.30721 10.5097 2.30721C9.50777 2.30721 8.69556 3.11942 8.69556 4.12134C8.69556 5.12326 9.50777 5.93548 10.5097 5.93548Z" stroke="#4A60A1" stroke-width="0.936687" stroke-linecap="round" stroke-linejoin="round"/>
<path d="M8.98477 5.10213L5.6853 7.2224" stroke="#4A60A1" stroke-width="0.936687" stroke-linecap="round" stroke-linejoin="round"/>
<path d="M5.6853 9.18393L8.98477 11.3042" stroke="#4A60A1" stroke-width="0.936687" stroke-linecap="round" stroke-linejoin="round"/>
</svg>
